<svg xmlns="http://www.w3.org/2000/svg" id="Logo" viewBox="0 0 222.91 163.28">
  <defs>
    <style>
      .cls-2{fill:#231f20}.cls-3{fill:#013047}.cls-4{fill:#ffd167}
    </style>
  </defs>
  <path d="M120.62 42.87c-.13.39-.38.71-.7.94-.32.23-.71.36-1.12.36h-4.85l-1.02 19.65c-.04.78-.69 1.4-1.47 1.4s-1.43-.61-1.47-1.4l-1.02-19.65h-4.86c-.82 0-1.55-.52-1.82-1.3-.07-.21-.11-.42-.11-.62 0-1.02.83-1.92 1.92-1.92h4.66l-.2-3.88c-.08-1.65 1.23-3.04 2.88-3.04s2.89 1.3 2.89 2.89v.15l-.2 3.88h4.65c1.32 0 2.25 1.29 1.82 2.54Z" class="cls-4"/>
  <path d="m141.04 55.36-11.61 22.15c-.14.26-.38.46-.66.55-.11.03-.21.05-.32.05-.19 0-.37-.05-.54-.14-.06-.04-6.39-3.5-10.34-3.97-2.92-.35-5.14 1.92-5.29 2.07-.02.02-.05.05-.08.07-.04.04-.09.08-.15.12a.21.21 0 0 0-.06.04c-.03.01-.06.03-.09.04-.04.02-.07.03-.11.04-.04 0-.07.02-.11.03-.04 0-.08.01-.12.02-.13.01-.27 0-.41-.04-.03 0-.06-.02-.1-.03-.03-.01-.06-.03-.09-.04-.12-.06-.24-.14-.34-.25-.02-.02-2.28-2.43-5.29-2.07-3.95.47-10.28 3.94-10.34 3.97-.16.09-.35.14-.54.14-.11 0-.21-.02-.32-.05-.28-.08-.52-.28-.66-.55L81.86 55.36c-.23-.43-.15-.96.2-1.3.35-.35.87-.43 1.3-.2 0 0 .51.23 1.52.23.66 0 1.52-.1 2.61-.4.88-.25 1.84-.95 2.94-1.76 1.73-1.27 3.89-2.85 7.05-3.68 5.05-1.33 9.14 2.19 9.31 2.34.46.4.51 1.1.11 1.56-.4.46-1.1.51-1.56.1-.06-.04-3.41-2.88-7.28-1.86-2.76.73-4.65 2.11-6.31 3.33-1.27.93-2.38 1.74-3.64 2.1-.78.22-1.49.36-2.11.43-.52.06-.81.63-.57 1.09l9.16 17.5c.19.36.63.51 1 .33 2.27-1.13 6.41-3.01 9.5-3.37 2.58-.31 4.68.79 5.93 1.69.27.19.62.19.89 0 1.25-.91 3.35-1.99 5.93-1.69 3.09.36 7.23 2.24 9.5 3.37.37.18.81.04 1-.33l9.16-17.5a.748.748 0 0 0-.57-1.09c-.62-.07-1.33-.2-2.11-.43-1.26-.36-2.36-1.17-3.64-2.1-1.66-1.22-3.55-2.6-6.31-3.33-3.89-1.03-7.25 1.83-7.28 1.86a1.107 1.107 0 0 1-1.45-1.67c.17-.15 4.26-3.67 9.31-2.34 3.17.84 5.32 2.42 7.06 3.68 1.1.81 2.05 1.51 2.94 1.76 2.78.79 4.13.17 4.14.17.43-.23.95-.15 1.29.2.34.34.41.88.19 1.31Z" class="cls-3"/>
  <path d="M111.57 76.42c-.13.02-.27 0-.41-.04.13.04.27.05.41.04Z" class="cls-3"/>
  <path d="M106.52 79.62c.09.05.2.11.3.17-.11-.05-.21-.11-.3-.16-.29-.16-.63-.2-.94-.1l-13.51 4.24c-.11.04-.22.05-.33.05a1.104 1.104 0 0 0 .34-.05l13.51-4.24c.31-.1.65-.07.94.1ZM114.85 77.17c-.24.12-.52.25-.83.36.31-.12.59-.24.83-.36ZM116.27 76.33c-.12.04-.23.11-.33.19l-.09.06c.06-.04.09-.07.09-.07.1-.08.21-.14.33-.18ZM128.74 80.67l-.09-.03-11.67-4.32c-.17-.05-.35-.06-.52-.04.17-.04.35-.03.52.03l11.77 4.36ZM148.13 63.15a.972.972 0 0 0-.3-.22l-5.05-2.64c-.17-.08-.35-.12-.52-.12.18 0 .35.03.52.12l5.05 2.64c.12.06.22.14.3.23ZM112.28 76.07s-.05.05-.08.07a1.004 1.004 0 0 0 .07-.07Z" class="cls-2"/>
  <path d="M111.46 28.07c-.39 0-.71-.31-.73-.7l-.71-13.69a1.44 1.44 0 0 1 1.44-1.52c.83 0 1.48.69 1.44 1.52l-.71 13.69c-.02.39-.34.7-.73.7ZM94.5 42.25c0 .39-.31.71-.7.73l-13.69.71c-.83.04-1.52-.62-1.52-1.44 0-.83.69-1.48 1.52-1.44l13.69.71c.39.02.7.34.7.73ZM100.18 31.62c-.19.21-.52.23-.74.05l-7.73-6.35c-.47-.38-.52-1.08-.11-1.52.41-.45 1.1-.46 1.53-.03l7.03 7.11c.2.2.21.53.01.74ZM128.42 42.25c0 .39.31.71.7.73l13.69.71c.83.04 1.52-.62 1.52-1.44 0-.83-.69-1.48-1.52-1.44l-13.69.71c-.39.02-.7.34-.7.73ZM122.73 31.62c.19.21.52.23.74.05l7.73-6.35c.47-.38.52-1.08.11-1.52-.41-.45-1.1-.46-1.53-.03l-7.03 7.11c-.2.2-.21.53-.01.74Z" class="cls-4"/>
  <path d="m148.16 64.64-16.14 18.8s-.05.06-.08.08c-.03.02-.05.05-.08.07-.28.22-.66.29-1.01.18l-13.51-4.24c-.31-.1-.66-.07-.94.1-.09.05-.2.11-.3.17-.11.05-.22.11-.34.17-.12.06-.24.12-.37.17-.07.03-.13.06-.2.09s-.14.06-.21.08c-.19.07-.39.15-.59.21-.84.27-1.82.46-2.91.46a9.613 9.613 0 0 1-3.51-.67c-.14-.06-.28-.12-.41-.17-.13-.06-.25-.12-.37-.17-.12-.06-.23-.12-.34-.17-.11-.06-.21-.12-.3-.17-.29-.16-.63-.2-.94-.1L92.1 83.77c-.35.11-.72.04-1.01-.18-.03-.02-.05-.05-.08-.07-.03-.03-.06-.06-.08-.09l-16.14-18.8c-.22-.26-.31-.6-.25-.93.03-.17.1-.32.2-.45l.08-.09c.08-.09.18-.16.3-.22l5.05-2.64c.17-.08.35-.12.52-.12h.14c.1.01.19.04.28.08.04.02.09.04.13.07.08.05.16.11.23.19.07.07.13.16.18.25 0 0 .01.02.02.03.49.9 8.74 15.31 11.03 19.25.31.52.92.77 1.49.62h.02s.06-.02.09-.04l11.67-4.32c.17-.05.35-.06.52-.04.06 0 .12.03.18.04.12.04.23.11.33.19 0 0 .05.04.14.1.04.03.1.07.16.11.06.04.14.09.22.14.07.04.14.08.22.12.04.02.08.04.12.07.08.04.15.08.23.12.24.12.52.25.83.36.71.26 1.59.47 2.56.47s1.84-.21 2.55-.47a7.357 7.357 0 0 0 1.06-.48c.04-.02.08-.04.12-.07.08-.04.15-.08.22-.12.04-.02.07-.04.1-.06.06-.04.12-.07.16-.1.03-.02.05-.04.07-.05a.43.43 0 0 0 .1-.07l.09-.06c.1-.08.21-.14.33-.19.06-.02.12-.04.18-.04.17-.03.35-.02.52.04l11.67 4.32.09.03h.02c.58.15 1.19-.1 1.49-.62 2.29-3.95 10.54-18.35 11.03-19.25 0-.01.01-.02.02-.03.05-.09.11-.18.18-.25.07-.07.15-.13.23-.19.04-.03.09-.05.13-.07.05-.02.09-.04.14-.05l.15-.03h.14c.18 0 .35.04.52.12l5.05 2.64c.12.06.21.13.3.22l.08.09c.1.13.17.29.2.46.06.33-.03.67-.25.93Z" class="cls-3"/>
  <path d="M80.65 60.17c-.18 0-.35.04-.52.12l-5.05 2.64c-.12.06-.21.13-.3.22.08-.09.18-.17.3-.23l5.05-2.64c.17-.09.35-.13.52-.12ZM81.07 60.26a.985.985 0 0 0-.28-.08c.1 0 .2.04.28.08ZM81.62 60.76ZM106.47 76.28c-.17-.03-.35-.02-.52.04l-11.67 4.32-.09.03 11.77-4.36c.17-.05.35-.06.52-.03ZM106.97 76.5l.14.11c-.09-.06-.14-.1-.14-.1-.1-.08-.21-.14-.33-.19.12.04.23.1.33.18ZM108.91 77.53c-.31-.11-.59-.24-.83-.36.24.12.52.24.83.36ZM131.86 83.59c-.19.16-.43.23-.67.23-.11 0-.23-.02-.33-.05l-13.51-4.24c-.31-.1-.65-.06-.94.1-.09.05-.2.11-.3.16.11-.06.21-.12.3-.17.28-.16.63-.2.94-.1l13.51 4.24c.35.11.72.04 1.01-.18ZM29.6 125.62v1.14c0 3.28-1 5.38-3.24 6.43 2.69 1.05 3.74 3.47 3.74 6.84v2.6c0 4.93-2.6 7.57-7.62 7.57h-7.89v-31.93h7.57c5.2 0 7.44 2.42 7.44 7.34Zm-9.98-2.78v8.44h1.96c1.87 0 3.01-.82 3.01-3.38v-1.78c0-2.28-.78-3.28-2.55-3.28h-2.42Zm0 13v9.81h2.87c1.69 0 2.6-.78 2.6-3.15v-2.78c0-2.96-.96-3.88-3.24-3.88h-2.24ZM33.57 118.28h5.02v31.93h-5.02v-31.93ZM57.7 125.62v1.14c0 3.28-1 5.38-3.24 6.43 2.69 1.05 3.74 3.47 3.74 6.84v2.6c0 4.93-2.6 7.57-7.62 7.57h-7.89v-31.93h7.57c5.2 0 7.44 2.42 7.44 7.34Zm-9.99-2.78v8.44h1.96c1.87 0 3.01-.82 3.01-3.38v-1.78c0-2.28-.78-3.28-2.55-3.28h-2.42Zm0 13v9.81h2.87c1.69 0 2.6-.78 2.6-3.15v-2.78c0-2.96-.96-3.88-3.24-3.88H47.7ZM61.67 118.28h5.02v27.37h8.26v4.56H61.68v-31.93ZM82.61 131.74h6.89v4.56h-6.89v9.35h8.67v4.56H77.6v-31.93h13.68v4.56h-8.67v8.89ZM112.9 144.33l3.83-26.05h4.61l-4.93 31.93h-7.48L104 118.28h5.06l3.83 26.05ZM129.14 131.74h6.89v4.56h-6.89v9.35h8.67v4.56h-13.68v-31.93h13.68v4.56h-8.67v8.89ZM151.85 150.21c-.27-.82-.46-1.32-.46-3.92v-5.02c0-2.97-1-4.06-3.28-4.06h-1.73v13h-5.02v-31.93h7.57c5.2 0 7.44 2.42 7.44 7.34v2.51c0 3.28-1.05 5.43-3.28 6.48 2.51 1.05 3.33 3.47 3.33 6.8v4.93c0 1.55.05 2.69.55 3.88h-5.11Zm-5.47-27.37v9.81h1.96c1.87 0 3.01-.82 3.01-3.38v-3.15c0-2.28-.78-3.28-2.55-3.28h-2.42ZM166.9 117.92c4.88 0 7.39 2.92 7.39 8.03v1h-4.74v-1.32c0-2.28-.91-3.15-2.51-3.15s-2.51.87-2.51 3.15c0 6.57 9.81 7.8 9.81 16.92 0 5.11-2.55 8.03-7.48 8.03s-7.48-2.92-7.48-8.03v-1.96h4.74v2.28c0 2.28 1 3.1 2.6 3.1s2.6-.82 2.6-3.1c0-6.57-9.81-7.8-9.81-16.92 0-5.11 2.51-8.03 7.39-8.03ZM182.69 131.74h6.89v4.56h-6.89v9.35h8.67v4.56h-13.68v-31.93h13.68v4.56h-8.67v8.89ZM201.66 117.92c4.88 0 7.39 2.92 7.39 8.03v1h-4.74v-1.32c0-2.28-.91-3.15-2.51-3.15s-2.51.87-2.51 3.15c0 6.57 9.81 7.8 9.81 16.92 0 5.11-2.55 8.03-7.48 8.03s-7.48-2.92-7.48-8.03v-1.96h4.74v2.28c0 2.28 1 3.1 2.6 3.1s2.6-.82 2.6-3.1c0-6.57-9.81-7.8-9.81-16.92 0-5.11 2.51-8.03 7.39-8.03ZM65.85 98.33l.26-2.72h-.13L65 98.1l-4.71 8.18h-.65l-5-8.21-.93-2.46h-.13l.36 2.69v12.2h-2.02V92.38h1.6l5.67 9.27.85 2.02h.05l.8-2.07 5.41-9.22h1.68v18.12h-2.15V98.33ZM72.4 92.37h9.87v1.92h-7.72v5.93h7.07v1.92h-7.07v6.45h7.85v1.92h-9.99V92.39ZM100.21 98.33l.26-2.72h-.13l-.98 2.49-4.71 8.18H94l-5-8.21-.93-2.46h-.13l.36 2.69v12.2h-2.02V92.38h1.6l5.67 9.27.85 2.02h.05l.8-2.07 5.41-9.22h1.68v18.12h-2.15V98.33ZM106.01 101.43c0-3.02.64-5.34 1.92-6.95 1.28-1.61 3.1-2.42 5.46-2.42 1.28 0 2.38.22 3.31.67a6.3 6.3 0 0 1 2.32 1.9c.61.82 1.07 1.8 1.36 2.95.29 1.15.44 2.43.44 3.85 0 3.02-.64 5.34-1.93 6.95-1.29 1.61-3.12 2.42-5.5 2.42-1.26 0-2.35-.22-3.28-.67a6.237 6.237 0 0 1-2.3-1.9c-.61-.82-1.07-1.8-1.36-2.95-.29-1.15-.44-2.43-.44-3.84Zm2.28 0c0 1 .1 1.95.3 2.85.2.9.5 1.69.92 2.37.41.68.95 1.23 1.59 1.63.65.41 1.41.61 2.29.61 1.61 0 2.87-.61 3.78-1.83.91-1.22 1.37-3.09 1.37-5.63 0-.98-.1-1.93-.3-2.84-.2-.91-.51-1.7-.93-2.38s-.96-1.23-1.61-1.63c-.65-.41-1.42-.61-2.32-.61-1.59 0-2.84.61-3.74 1.83-.91 1.22-1.36 3.09-1.36 5.63ZM124.47 92.55c.66-.12 1.41-.22 2.27-.28.85-.07 1.64-.1 2.34-.1.79 0 1.55.09 2.27.26s1.35.46 1.89.85c.54.4.98.92 1.31 1.55.33.64.49 1.42.49 2.33 0 1.42-.39 2.56-1.17 3.44-.78.88-1.76 1.47-2.95 1.76l1.24.96 4.51 7.17h-2.51l-5-7.82-2.54-.39v8.21h-2.15V92.55Zm4.66 1.48h-.7c-.24 0-.47 0-.7.03-.22.02-.44.04-.63.05-.2.02-.36.04-.48.08v6.68h2.02c1.19 0 2.17-.29 2.95-.88.78-.59 1.17-1.5 1.17-2.74 0-.93-.32-1.7-.96-2.3-.64-.6-1.53-.91-2.67-.91ZM140.37 92.37h2.15v18.12h-2.15V92.37ZM146.19 108.55l9.14-13.23 1.09-1.04h-10.23v-1.92h12.17v1.94l-9.19 13.31-1.09.96h10.28v1.92h-12.17v-1.94ZM161.52 92.37h9.87v1.92h-7.72v5.93h7.07v1.92h-7.07v6.45h7.85v1.92h-9.99V92.39Z" class="cls-3"/>
  <path d="M0 0h222.91v163.28H0z" style="fill:none"/>
</svg>
