<svg xmlns="http://www.w3.org/2000/svg" id="Logo" viewBox="0 0 78.72 78.72">
  <defs>
    <style>
      .cls-1{fill:#231f20}.cls-2{fill:#013047}.cls-4{fill:#ffd167}
    </style>
  </defs>
  <circle cx="39.36" cy="39.36" r="39.36" style="fill:#8fcae5"/>
  <path d="M46.48 34.69c-.1.3-.3.55-.54.73-.25.18-.55.28-.87.28H41.3l-.79 15.28c-.03.61-.53 1.09-1.14 1.09s-1.11-.48-1.14-1.09l-.79-15.28h-3.78a1.487 1.487 0 0 1-1.49-1.5c0-.8.64-1.49 1.5-1.49h3.62l-.15-3.02c-.07-1.28.95-2.36 2.24-2.36s2.25 1.01 2.25 2.24v.12l-.16 3.02h3.62c1.03 0 1.75 1.01 1.42 1.98Z" class="cls-4"/>
  <path d="m62.36 44.4-9.02 17.22a.85.85 0 0 1-.51.42c-.08.02-.17.04-.25.04-.14 0-.29-.04-.42-.11-.05-.03-4.97-2.72-8.04-3.09-2.27-.27-4 1.49-4.12 1.61l-.06.06c-.03.03-.07.06-.11.09-.01.01-.03.02-.05.03-.02.01-.05.02-.07.03-.03.01-.06.02-.08.03-.03 0-.06.01-.08.02-.03 0-.06.01-.09.01-.1.01-.21 0-.32-.03-.02 0-.05-.01-.08-.02-.02-.01-.05-.02-.07-.03a.7.7 0 0 1-.26-.19c-.01-.02-1.77-1.89-4.12-1.61-3.07.37-7.99 3.06-8.04 3.09-.13.07-.27.11-.42.11-.08 0-.17-.01-.25-.04a.857.857 0 0 1-.51-.42L16.37 44.4a.866.866 0 0 1 .15-1.01.85.85 0 0 1 1.01-.15s.39.18 1.18.18c.51 0 1.18-.08 2.03-.31.69-.2 1.43-.74 2.29-1.37 1.35-.99 3.02-2.21 5.48-2.86 3.92-1.03 7.1 1.7 7.23 1.82.36.31.4.86.08 1.22-.31.35-.86.39-1.21.08-.04-.03-2.65-2.24-5.66-1.44-2.15.57-3.61 1.64-4.91 2.59-.99.72-1.85 1.35-2.83 1.63-.61.17-1.16.28-1.64.33-.4.05-.63.49-.44.85l7.12 13.61c.15.28.49.4.78.25 1.77-.88 4.98-2.34 7.38-2.62 2.01-.24 3.64.61 4.61 1.31.21.15.48.15.69 0 .97-.7 2.6-1.55 4.61-1.31 2.4.28 5.62 1.74 7.38 2.62.28.14.63.03.78-.25l7.12-13.61c.19-.36-.04-.8-.44-.85-.49-.05-1.03-.16-1.64-.33-.98-.28-1.84-.91-2.83-1.63-1.29-.95-2.76-2.02-4.9-2.59-3.03-.8-5.64 1.42-5.66 1.45a.87.87 0 0 1-1.22-.09c-.31-.36-.28-.9.08-1.21.13-.12 3.31-2.85 7.23-1.82 2.46.65 4.14 1.88 5.49 2.86.85.63 1.6 1.17 2.29 1.37 2.16.61 3.21.13 3.22.13.33-.18.74-.11 1.01.15.27.27.32.68.14 1.02Z" class="cls-2"/>
  <path d="M39.45 60.78c-.1.01-.21 0-.32-.03.1.03.21.04.32.03Z" class="cls-2"/>
  <path d="M35.52 63.26c.07.04.15.09.23.13-.08-.04-.16-.09-.23-.13a.977.977 0 0 0-.73-.08l-10.5 3.3c-.08.03-.17.04-.26.04-.19 0-.38-.06-.52-.18.22.17.51.22.78.14l10.5-3.3c.24-.08.51-.05.73.08ZM41.99 61.36c-.19.1-.41.19-.65.28.24-.09.46-.19.65-.28ZM43.1 60.7c-.09.03-.18.08-.26.14 0 0-.02.02-.07.05a.816.816 0 0 1 .33-.2ZM52.79 64.07s-.05-.01-.07-.02l-9.08-3.36a.941.941 0 0 0-.41-.03c.13-.03.27-.02.41.02l9.15 3.39ZM67.87 50.46a.764.764 0 0 0-.23-.17l-3.92-2.05a.857.857 0 0 0-.41-.1c.14 0 .28.02.41.09l3.92 2.05c.09.05.17.11.23.18ZM39.99 60.5l-.06.06c-.03.03-.07.06-.11.09.06-.04.12-.09.17-.14Z" class="cls-1"/>
  <path d="M39.36 23.18a.57.57 0 0 1-.57-.54L38.24 12c-.03-.64.48-1.18 1.12-1.18.64 0 1.15.54 1.12 1.18l-.55 10.64c-.02.3-.27.54-.57.54ZM26.17 34.21c0 .3-.24.56-.54.57l-10.64.55c-.64.03-1.18-.48-1.18-1.12 0-.64.54-1.15 1.18-1.12l10.64.55c.3.02.54.27.54.57ZM30.59 25.94c-.15.16-.4.18-.57.04l-6.01-4.94c-.36-.3-.4-.84-.09-1.18.32-.35.86-.36 1.19-.02l5.47 5.53c.16.16.16.41.01.57ZM52.54 34.21c0 .3.24.56.54.57l10.64.55c.64.03 1.18-.48 1.18-1.12 0-.64-.54-1.15-1.18-1.12l-10.64.55c-.3.02-.54.27-.54.57ZM48.12 25.94c.15.16.4.18.57.04l6.01-4.94c.36-.3.4-.84.09-1.18a.814.814 0 0 0-1.19-.02l-5.47 5.53c-.16.16-.16.41-.01.57Z" class="cls-4"/>
  <path d="M67.9 51.61 55.35 66.23l-.07.07-.06.06c-.22.17-.51.22-.78.14l-10.5-3.3a.892.892 0 0 0-.73.08c-.07.04-.15.09-.23.13-.08.04-.17.09-.26.13-.09.04-.19.09-.29.13-.05.02-.1.05-.16.07-.05.02-.11.04-.16.07-.14.06-.3.11-.46.17-.65.21-1.42.36-2.26.36s-1.61-.15-2.27-.36c-.16-.05-.32-.11-.46-.17-.11-.04-.22-.09-.32-.13-.1-.04-.2-.09-.29-.13-.09-.05-.18-.09-.26-.13-.08-.04-.16-.09-.23-.13a.932.932 0 0 0-.73-.08l-10.5 3.3a.84.84 0 0 1-.78-.14l-.06-.06-.07-.07-12.55-14.62a.862.862 0 0 1-.19-.72c.02-.13.08-.25.16-.35l.06-.07c.07-.07.14-.13.23-.17l3.92-2.05c.13-.07.27-.1.41-.1h.11a.794.794 0 0 1 .32.11c.07.04.13.08.18.14.06.06.1.12.14.2l.01.02c.38.7 6.8 11.9 8.57 14.97.24.41.71.6 1.16.49h.01s.05-.02.07-.03l9.08-3.36c.13-.04.27-.05.41-.03.04 0 .09.02.14.03.09.03.18.08.25.14l.11.08c.03.02.08.06.13.09s.11.07.17.11c.05.03.11.07.17.1.03.02.06.03.1.05l.18.09c.19.1.41.19.65.28.55.2 1.23.36 1.99.36s1.43-.16 1.98-.36c.24-.09.46-.18.65-.28l.18-.09c.03-.02.07-.03.1-.05.06-.03.12-.07.17-.1.03-.01.05-.03.08-.05.05-.03.09-.05.12-.08.02-.01.04-.03.06-.04.03-.02.06-.04.08-.05s.07-.05.07-.05c.08-.06.17-.11.26-.14.04-.01.09-.03.14-.03.13-.02.28-.01.41.03l9.08 3.36s.05.02.07.02h.01c.45.11.92-.08 1.16-.49 1.78-3.07 8.19-14.27 8.58-14.97 0-.01.01-.02.01-.02.04-.07.09-.14.14-.2.06-.05.12-.1.18-.14.03-.02.07-.04.1-.05.04-.01.07-.03.11-.04.04-.01.08-.02.11-.02h.11c.14 0 .28.03.41.1l3.92 2.05c.09.04.17.1.23.17l.06.07c.08.1.13.22.16.36.05.26-.02.52-.19.72Z" class="cls-2"/>
  <path d="M15.41 48.14c-.14 0-.28.03-.41.1l-3.92 2.05c-.09.04-.17.1-.23.17.06-.07.14-.13.23-.18L15 48.23c.13-.07.27-.1.41-.09ZM15.73 48.21a.794.794 0 0 0-.22-.06c.08 0 .15.03.22.06ZM16.16 48.6c-.04-.08-.09-.14-.14-.2.06.06.1.12.14.2ZM35.48 60.67a.953.953 0 0 0-.41.03l-9.08 3.36s-.05.02-.07.02l9.15-3.39a.81.81 0 0 1 .41-.02ZM35.87 60.84l.11.08c-.07-.04-.11-.08-.11-.08ZM37.37 61.63c-.24-.09-.46-.18-.65-.28.19.09.41.19.65.28ZM55.22 66.35c-.15.12-.33.18-.52.18-.09 0-.18-.01-.26-.04l-10.51-3.3a.892.892 0 0 0-.73.08c-.07.04-.15.09-.23.13.08-.04.16-.09.23-.13.22-.13.49-.15.73-.08l10.5 3.3c.27.09.56.03.78-.14Z" class="cls-2"/>
</svg>
